<svg width="37" height="37" viewBox="0 0 37 37" fill="none" xmlns="http://www.w3.org/2000/svg">
<path d="M24.5686 17.0019C25.2045 17.0019 25.7436 17.196 26.0889 17.5411C26.4283 17.8865 26.6772 18.3781 26.7742 19.1051H22.363C22.363 18.9112 22.4119 18.7108 22.4603 18.4686C22.5088 18.2262 22.611 17.9772 22.8048 17.7833C22.9987 17.5894 23.1932 17.3895 23.4901 17.2441C23.7869 17.0987 24.1263 17.0019 24.5686 17.0019Z" fill="currentColor"/>
<path d="M13.583 18.9591C14.2191 18.9591 14.7582 19.1042 15.1521 19.401C15.5458 19.7463 15.7399 20.2369 15.74 20.9213C15.74 21.2666 15.6434 21.5639 15.5465 21.8063C15.4011 22.0485 15.2498 22.1941 15.0559 22.3455C14.8621 22.497 14.613 22.5941 14.3707 22.6426C14.1223 22.691 13.8311 22.7399 13.5344 22.7399V22.7337H10.3539V18.9591H13.583Z" fill="currentColor"/>
<path d="M13.1961 13.7715C13.4868 13.7715 13.7353 13.7718 13.9775 13.8202C14.2195 13.8687 14.4193 13.9655 14.6128 14.0624C14.8128 14.2077 14.959 14.3603 15.0559 14.5542C15.1527 14.7481 15.2007 15.0389 15.2007 15.3355C15.2007 15.8746 15.0493 16.3103 14.7102 16.5588C14.3709 16.8072 13.9287 16.9532 13.3896 16.9532C13.3896 16.9532 10.3539 16.9534 10.3539 16.9595V13.7715H13.1961Z" fill="currentColor"/>
<path fill-rule="evenodd" clip-rule="evenodd" d="M18.3999 0C28.5619 0 36.7998 8.23791 36.7998 18.3999C36.7998 28.5619 28.5619 36.7998 18.3999 36.7998C8.23791 36.7998 0 28.5619 0 18.3999C3.16211e-05 8.23793 8.23793 3.16232e-05 18.3999 0ZM24.7134 14.9361C23.9261 14.9362 23.2899 15.087 22.6538 15.3293C22.0663 15.5717 21.5271 15.9656 21.0848 16.4078C20.6426 16.8984 20.3034 17.4381 20.055 18.0741C19.8065 18.7103 19.7093 19.4018 19.7093 20.1349C19.7093 20.9224 19.8126 21.6071 20.055 22.2431C20.2549 22.8793 20.5938 23.4185 21.0361 23.8608C21.4784 24.3516 21.9691 24.697 22.6051 24.9393C23.2412 25.1876 23.9321 25.3336 24.7134 25.3337C25.8404 25.3337 26.774 25.0419 27.5555 24.5511C28.3371 24.0119 28.9255 23.1763 29.3193 22.001H26.919C26.8219 22.2978 26.5799 22.5892 26.1863 22.886C25.7925 23.1343 25.3012 23.2792 24.762 23.2792C23.9806 23.2791 23.3933 23.085 22.9996 22.6913C22.6058 22.2976 22.3144 21.5649 22.3143 20.7653H29.4216C29.4701 19.9836 29.4225 19.2918 29.3255 18.6071C29.1256 17.9226 28.8343 17.2865 28.4405 16.7473C28.0467 16.1596 27.5551 15.772 26.919 15.4267C26.2829 15.0815 25.5494 14.9361 24.7134 14.9361ZM7.36071 11.4636V24.993L13.9288 24.9817C14.5164 24.9817 15.1038 24.8837 15.6913 24.7383C16.2791 24.593 16.8192 24.3513 17.2615 24.0543C17.7038 23.7635 18.0976 23.3205 18.34 22.8298C18.5882 22.3391 18.7332 21.7517 18.7332 21.0673C18.7332 20.2314 18.4854 19.498 18.0978 18.9104C17.7101 18.3227 17.0728 17.8796 16.2367 17.6372C16.8303 17.3465 17.3154 16.9534 17.6123 16.5114C17.9576 16.0691 18.1028 15.4809 18.1028 14.7963C18.1028 14.2088 18.0008 13.6695 17.807 13.2273C17.6071 12.785 17.3159 12.4386 16.922 12.1963C16.5282 11.954 16.0857 11.754 15.5465 11.6571C15.0072 11.5117 14.4189 11.4636 13.7828 11.4636H7.36071ZM21.7751 12.3972V13.7179H27.2647V12.3972H21.7751Z" fill="currentColor"/>
</svg>
