<svg width="29" height="29" viewBox="0 0 29 29" fill="none" xmlns="http://www.w3.org/2000/svg">
<path d="M17.0049 17.0947C18.4444 20.4236 19.7038 23.7527 20.8734 27.2616C18.8941 28.2512 16.7347 28.791 14.3955 28.791C10.7067 28.791 7.28778 27.3513 4.76858 25.102C8.27747 21.3233 12.4163 18.6242 17.0049 17.0947Z" fill="white"/>
<path d="M26.182 15.5652C26.9917 15.5652 27.8913 15.5652 28.791 15.7451C28.3412 20.1537 26.0019 24.0226 22.493 26.3618C21.3234 23.0329 20.1537 19.704 18.7142 16.555C21.1435 15.9252 23.6627 15.5652 26.182 15.5652Z" fill="white"/>
<path d="M14.3955 11.6964C15.0253 12.956 15.6551 14.1257 16.1949 15.3853C11.4265 17.0948 7.10764 19.8837 3.50878 23.7525C1.34952 21.2333 0 17.9943 0 14.3955V14.0357H1.25948C5.48816 14.0357 9.89691 13.2259 14.3955 11.6964Z" fill="white"/>
<path d="M26.0919 6.02806C27.6214 8.18738 28.6109 10.8867 28.7009 13.7658C27.8012 13.6758 26.9915 13.6757 26.0919 13.6757C23.3027 13.6757 20.5135 14.1256 17.9043 14.8454C17.3645 13.5858 16.7348 12.416 16.1949 11.1564C19.4339 9.89678 22.7629 8.18738 26.0919 6.02806Z" fill="white"/>
<path d="M8.54733 1.34958C10.3468 4.22867 12.0562 7.10786 13.6757 10.1669C8.99714 11.6964 4.49853 12.4161 0.17988 12.3261C0.899673 7.37766 4.13873 3.23898 8.54733 1.34958Z" fill="white"/>
<path d="M14.3955 0C18.6241 3.6159e-05 22.3128 1.79946 25.0119 4.67848C21.773 6.65784 18.624 8.27755 15.385 9.53715C13.7655 6.47811 12.0561 3.50884 10.2567 0.62974C11.5163 0.179885 12.956 0 14.3955 0Z" fill="white"/>
</svg>
